# xmcd
#
# Track frame offsets:
# 182
# 17350
# 33312
# 49637
# 66560
# 84162
# 100537
# 116387
# 134412
# 151675
# 171275
#
# Disc length: 2450 seconds
#
#
# Revision: 0
# Processed by: cddbd v1.4PL0 Copyright (c) Steve Scherf et al.
# Submitted via: FreeRIP 2.20 
#
DISCID=7a09900b
DTITLE=Nine Below Zero - Off The Hook
DYEAR=1992
DGENRE=Blues
TTITLE0=Soft Touch
TTITLE1=Bad Town
TTITLE2=Work Shy
TTITLE3=Down In The Dirt Again
TTITLE4=Jump Back Baby
TTITLE5=She Gives Me The Shakes
TTITLE6=Satellite Blues
TTITLE7=Fire Down Below
TTITLE8=Blue Moon Fever
TTITLE9=Another Kinda Love
TTITLE10=Goodbye Cherry Red
EXTD=
EXTT0=
EXTT1=
EXTT2=
EXTT3=
EXTT4=
EXTT5=
EXTT6=
EXTT7=
EXTT8=
EXTT9=
EXTT10=
PLAYORDER=
